<mxfile host="app.diagrams.net" modified="2023-07-20T13:33:10.381Z" agent="Mozilla/5.0 (X11; Linux x86_64) AppleWebKit/537.36 (KHTML, like Gecko) Chrome/114.0.0.0 Safari/537.36" version="21.6.2" etag="O1XazUxK_AfQnnEVxwLh" type="github">
  <diagram name="Page-1" id="NQZw1fw2-5xYySG7AI9g">
    <mxGraphModel>
      <root>
        <mxCell id="0" />
        <mxCell id="1" parent="0" />
      </root>
    </mxGraphModel>
  </diagram>
</mxfile>
